<svg xmlns="http://www.w3.org/2000/svg" width="1600" height="1200" viewBox="0 0 1600 1200" role="img" aria-label="Bathrooms">
  <defs>
    <linearGradient id="bg-gufov5" x1="0" y1="0" x2="1" y2="1">
      <stop offset="0" stop-color="#f4efe9"/>
      <stop offset="1" stop-color="#ece4da"/>
    </linearGradient>
    
  <filter id="gr-gufov5">
    <feTurbulence type="fractalNoise" baseFrequency="0.9" numOctaves="2" stitchTiles="stitch"/>
    <feColorMatrix type="saturate" values="0"/>
    <feComponentTransfer><feFuncA type="linear" slope="0.06"/></feComponentTransfer>
    <feComposite operator="over" in2="SourceGraphic"/>
  </filter>
  </defs>
  <rect width="1600" height="1200" fill="url(#bg-gufov5)"/>
  <g transform="translate(320 220) scale(1)">
    <g opacity="0.9"><g fill="none" stroke="#c0532e" stroke-width="3">
      <rect x="120" y="380" width="220" height="120" rx="12"/>
      <path d="M120 440 h220"/>
      <circle cx="150" cy="360" r="10"/>
      <path d="M520 250 v220 M470 470 h360 a40 40 0 0 0 40-40 v-10 h-440 v10 a40 40 0 0 0 40 40z"/>
      <path d="M690 230 a26 26 0 1 1 0 1"/>
    </g></g>
  </g>
  <rect width="1600" height="1200" filter="url(#gr-gufov5)" opacity="0.5"/>
  <g font-family="'Clash Display','Arial Black',sans-serif">
        <text x="64" y="1080" font-family="Satoshi,Arial,sans-serif" font-size="26" letter-spacing="6" fill="#c0532e" opacity="0.85">Talmage Construction</text>
        <text x="60" y="1144" font-size="80" font-weight="700" fill="#1a1714">Bathrooms</text>
      </g>
</svg>