<svg xmlns="http://www.w3.org/2000/svg" width="1600" height="1200" viewBox="0 0 1600 1200" role="img" aria-label="Tile Work">
  <defs>
    <linearGradient id="bg-g4p221" x1="0" y1="0" x2="1" y2="1">
      <stop offset="0" stop-color="#f4efe9"/>
      <stop offset="1" stop-color="#ece4da"/>
    </linearGradient>
    
  <filter id="gr-g4p221">
    <feTurbulence type="fractalNoise" baseFrequency="0.9" numOctaves="2" stitchTiles="stitch"/>
    <feColorMatrix type="saturate" values="0"/>
    <feComponentTransfer><feFuncA type="linear" slope="0.06"/></feComponentTransfer>
    <feComposite operator="over" in2="SourceGraphic"/>
  </filter>
  </defs>
  <rect width="1600" height="1200" fill="url(#bg-g4p221)"/>
  <g transform="translate(320 220) scale(1)">
    <g opacity="0.9"><g fill="none" stroke="#c0532e" stroke-width="2.5">
      <rect x="140" y="240" width="74" height="44" rx="4"/><rect x="220" y="240" width="74" height="44" rx="4"/><rect x="300" y="240" width="74" height="44" rx="4"/><rect x="380" y="240" width="74" height="44" rx="4"/><rect x="460" y="240" width="74" height="44" rx="4"/><rect x="540" y="240" width="74" height="44" rx="4"/><rect x="620" y="240" width="74" height="44" rx="4"/><rect x="700" y="240" width="74" height="44" rx="4"/><rect x="780" y="240" width="74" height="44" rx="4"/><rect x="180" y="290" width="74" height="44" rx="4"/><rect x="260" y="290" width="74" height="44" rx="4"/><rect x="340" y="290" width="74" height="44" rx="4"/><rect x="420" y="290" width="74" height="44" rx="4"/><rect x="500" y="290" width="74" height="44" rx="4"/><rect x="580" y="290" width="74" height="44" rx="4"/><rect x="660" y="290" width="74" height="44" rx="4"/><rect x="740" y="290" width="74" height="44" rx="4"/><rect x="820" y="290" width="74" height="44" rx="4"/><rect x="140" y="340" width="74" height="44" rx="4"/><rect x="220" y="340" width="74" height="44" rx="4"/><rect x="300" y="340" width="74" height="44" rx="4"/><rect x="380" y="340" width="74" height="44" rx="4"/><rect x="460" y="340" width="74" height="44" rx="4"/><rect x="540" y="340" width="74" height="44" rx="4"/><rect x="620" y="340" width="74" height="44" rx="4"/><rect x="700" y="340" width="74" height="44" rx="4"/><rect x="780" y="340" width="74" height="44" rx="4"/><rect x="180" y="390" width="74" height="44" rx="4"/><rect x="260" y="390" width="74" height="44" rx="4"/><rect x="340" y="390" width="74" height="44" rx="4"/><rect x="420" y="390" width="74" height="44" rx="4"/><rect x="500" y="390" width="74" height="44" rx="4"/><rect x="580" y="390" width="74" height="44" rx="4"/><rect x="660" y="390" width="74" height="44" rx="4"/><rect x="740" y="390" width="74" height="44" rx="4"/><rect x="820" y="390" width="74" height="44" rx="4"/><rect x="140" y="440" width="74" height="44" rx="4"/><rect x="220" y="440" width="74" height="44" rx="4"/><rect x="300" y="440" width="74" height="44" rx="4"/><rect x="380" y="440" width="74" height="44" rx="4"/><rect x="460" y="440" width="74" height="44" rx="4"/><rect x="540" y="440" width="74" height="44" rx="4"/><rect x="620" y="440" width="74" height="44" rx="4"/><rect x="700" y="440" width="74" height="44" rx="4"/><rect x="780" y="440" width="74" height="44" rx="4"/><rect x="180" y="490" width="74" height="44" rx="4"/><rect x="260" y="490" width="74" height="44" rx="4"/><rect x="340" y="490" width="74" height="44" rx="4"/><rect x="420" y="490" width="74" height="44" rx="4"/><rect x="500" y="490" width="74" height="44" rx="4"/><rect x="580" y="490" width="74" height="44" rx="4"/><rect x="660" y="490" width="74" height="44" rx="4"/><rect x="740" y="490" width="74" height="44" rx="4"/><rect x="820" y="490" width="74" height="44" rx="4"/>
    </g></g>
  </g>
  <rect width="1600" height="1200" filter="url(#gr-g4p221)" opacity="0.5"/>
  <g font-family="'Clash Display','Arial Black',sans-serif">
        <text x="64" y="1080" font-family="Satoshi,Arial,sans-serif" font-size="26" letter-spacing="6" fill="#c0532e" opacity="0.85">Talmage Construction</text>
        <text x="60" y="1144" font-size="80" font-weight="700" fill="#1a1714">Tile Work</text>
      </g>
</svg>